/* XPM */
static char *_4ec7ee1cf28461ea9e4d5bbfc3cd9fa49kX1WmRUp2d9Grr[] = {
/* columns rows colors chars-per-pixel */
"64 64 185 2 ",
"   c None",
".  c #621A5F",
"X  c #441E61",
"o  c #4B1E65",
"O  c #531D60",
"+  c #5E1F6B",
"@  c #611B64",
"#  c #6B1D6A",
"$  c #641E6A",
"%  c #731F71",
"&  c #4D216B",
"*  c #52206B",
"=  c #59206B",
"-  c #532474",
";  c #5D2373",
":  c #56267A",
">  c #5C2579",
",  c #5A287F",
"<  c #652274",
"1  c #6C2175",
"2  c #672379",
"3  c #6A247B",
"4  c #752075",
"5  c #782076",
"6  c #74227A",
"7  c #7C2179",
"8  c #80227E",
"9  c #5D2983",
"0  c #692782",
"q  c #622984",
"w  c #6C2987",
"e  c #652A8B",
"r  c #6B2A8E",
"t  c #7B2685",
"y  c #75268E",
"u  c #7C268E",
"i  c #73298F",
"p  c #7C288F",
"a  c #762582",
"s  c #672D91",
"d  c #6B2C91",
"f  c #732B90",
"g  c #7B2B90",
"h  c #6E3294",
"j  c #743495",
"k  c #7B3394",
"l  c #753897",
"z  c #7C3997",
"x  c #763C99",
"c  c #7C3C99",
"v  c #77429C",
"b  c #7C429C",
"n  c #7D499F",
"m  c #832484",
"M  c #882486",
"N  c #84268E",
"B  c #8B268E",
"V  c #84288F",
"C  c #8C288F",
"Z  c #90278F",
"A  c #842A90",
"S  c #8B2A91",
"D  c #922790",
"F  c #912C92",
"G  c #833394",
"H  c #8C3496",
"J  c #833997",
"K  c #8B3897",
"L  c #833D99",
"P  c #8C3C99",
"I  c #933394",
"U  c #933C99",
"Y  c #973B99",
"T  c #83449D",
"R  c #8C439C",
"E  c #864A9F",
"W  c #8B489F",
"Q  c #93429C",
"!  c #9B429C",
"~  c #92489F",
"^  c #98489F",
"/  c #854DA1",
"(  c #8C4CA1",
")  c #944DA1",
"_  c #9B4CA1",
"`  c #8653A4",
"'  c #8B53A4",
"]  c #8D59A7",
"[  c #8F5CA9",
"{  c #9454A5",
"}  c #9C55A6",
"|  c #935AA7",
" . c #9B58A7",
".. c #935FAA",
"X. c #9D5DA9",
"o. c #A04BA0",
"O. c #A355A5",
"+. c #A458A7",
"@. c #A35DA9",
"#. c #9363AC",
"$. c #9B64AD",
"%. c #9768AF",
"&. c #9B68AE",
"*. c #9C6EB1",
"=. c #956CB0",
"-. c #9D73B4",
";. c #A464AD",
":. c #A268AF",
">. c #AC69AF",
",. c #A861AB",
"<. c #A36DB1",
"1. c #AB6EB2",
"2. c #A473B4",
"3. c #AB73B5",
"4. c #A579B7",
"5. c #AB79B7",
"6. c #A57DB9",
"7. c #AB7CB8",
"8. c #B274B4",
"9. c #B37CB9",
"0. c #B679B7",
"q. c #AD85BD",
"w. c #AE89BF",
"e. c #B485BD",
"r. c #BA84BD",
"t. c #B589BF",
"y. c #B988BF",
"u. c #AE8DC1",
"i. c #B58DC1",
"p. c #BC8DC1",
"a. c #AE90C2",
"s. c #B492C3",
"d. c #BC93C4",
"f. c #B599C7",
"g. c #BB99C7",
"h. c #BB9DC9",
"j. c #BDA2CB",
"k. c #C18FC2",
"l. c #C396C5",
"z. c #C399C7",
"x. c #C49DC9",
"c. c #C99EC9",
"v. c #C4A3CC",
"b. c #CAA3CC",
"n. c #C5A9CE",
"m. c #CBA9CF",
"M. c #C5ACD1",
"N. c #CBADD1",
"B. c #D1AFD2",
"V. c #C7B2D3",
"C. c #CCB4D4",
"Z. c #CDB9D7",
"A. c #CFBDD9",
"S. c #D3B5D5",
"D. c #D3B9D7",
"F. c #D3BDD9",
"G. c #D9BEDA",
"H. c #D5C3DC",
"J. c #DAC5DD",
"K. c #D7C8DE",
"L. c #DAC9DE",
"P. c #DCC9DF",
"I. c #DCCDE1",
"U. c #DDD2E3",
"Y. c #E0CEE1",
"T. c #E2D4E4",
"R. c #E4D9E7",
"E. c #E6DDE9",
"W. c #E8DEE9",
"Q. c #E7E0EA",
"!. c #EAE4EC",
"~. c #EEE9EF",
"^. c #EFECF0",
"/. c #F0EEF1",
"(. c #F2F1F3",
"). c #F4F4F4",
"_. c #F5F5F5",
"`. c #F5F6F5",
"'. c #F5F7F5",
"]. c #F6F7F5",
"[. c #F6F7F6",
"{. c #F5F5F5",
"}. c #F7F9F6",
"|. c #F7F8F6",
" X c #F8FAF7",
/* pixels */
"                                                    O = = 2 2 3 3 2 2 < = O                                                     ",
"                                              ; 3 i i i g g k p g p g p p p t 6 <                                               ",
"                                        ; 0 i i f g f g g f g g g g A A g A A A p V a <                                         ",
"                                    > w i f i f g f f g g g p i g p g g A g g A A V A V u 6                                     ",
"                                > r i j f f f f f f i p g i p i u g A g g g A g A A V A N S u 6                                 ",
"                            * w f f f i f f f y i z ( W g g :.d.d. .g A  .) G V V N A A A N N N t $                             ",
"                          , r d f d f f y i c *.v.J.!.n.g g M. X}.q.u G L.!.I.x.<.P A V A A A S S N 4                           ",
"                        q f d f d f i f / i.I./.].].'.n.f g m.'.).i.y G L.].].]./.Y.d._ A N A S A S S t                         ",
"                    o e f d f d f d / g.E.]._.)._.(.[.v.f g N.[.].i.y G H._.).].)._._.!.x.) N N S N C C m @                     ",
"                  o e d d f d f l 6.T.).).)._.].(.].[.x.g g C._.].d.g A F._.)./.)._.).)._.R.r.H N S N S S m $                   ",
"                o e d d d f d / C./.].)._./.I.i.I.). Xh.y g C._._.z.p A S._.].N.e.I./._.)._._.S._ N C N S C M @                 ",
"                e d d f d d #.I.].(.].(.I.4.z f Z._._.s.u k F.].[.n.g g N.[.[.h.N H 3.I.)._._._.T.,.C N C C Z m                 ",
"              q d d d d d *.E.].].].!.u.c f f g C.[._.i.y G L.].[.C.g g b._.[.x.u V V K i.W._._.].!.8.C C C C C m               ",
"            : d d d d d -.!.].].].K...f f f f f Z.[.].q.y J I.].].F.A p h._.[.b.V V A V A O.G._.).].!.3.C C C C C 5             ",
"          & d d d d d =.!.).(.].N.T d f f f i k H.].(.6.y L R.).].L.G u p.]._.C.A A A A N N U N.).).[.!.>.C C C C C #           ",
"          e d d d d ` U.).).).v.x d y L q.T i L I.]./.<.y ( E.].].T.L u 7.]._.G.A g ) l.Q N A H c.(.).[.R.O.C C C Z m           ",
"        : s h r s x A.}.).].M.x f d / H.U.c f T R.}.^...y { ~.)._.W.( u 1.)._.I.H u ) E.I._ N C I b.).).[.G.Y C C C D 4         ",
"        e d d s d a.).).].A.c d f ' U. XH.k y ( !._.^.' y :./.]._.~._ u X./._.E.( N H I._.T.} A A U S.].).).l.D C Z D M         ",
"      : s h d e ] Q._.).R.' d f / I.]._.C.f i ..^.[.R.( y 5.(.(.).(.:.u ) ~._.^.} N H G._._.Y._ N N _ T._._.~.@.C Z Z Z 5       ",
"      e s s d h V.[.).(.-.d d c H.].(.[.v.f y 6.(.].I.L y d.].]._._.u.u P R._._.>.u A N._.).).I.U B B 1./.).[.S.I C C Z M       ",
"    - s s d s #.^.).[.V.j d d h.].(.].!.%.i i g.].].C.g g N._.(.)._.n.p G F._._.p.A V ;.W._._._.m.S C S N.].)./.>.C Z Z D %     ",
"    9 s d s h V.[._.^.] d d *.^.).].^.6.f f g Z.].].s.y z I.[.].)._.G.G p g._._.C.A A V 3.~._._./.8.N B O.!.]._.S.F C Z D m     ",
"    e s s s ` !._._.M.f d x I.).).).s.f f f T R.].(.<.y ( R.].(.).).E.( u 1.)._.T.P N A A p.(._.].I.Y N Z b.].).~.O.Z Z Z B     ",
"  - s s s s u.)._.^.#.d d 7.).).].F.l i f y %.^.].E.( y $./.).).).).^.X.u ) !._./.@.u A A H S._.).).r.C N +.^.).].k.C Z Z Z %   ",
"  , s s s h K.'.'.K.x s x I.)._.!...d f f f i._.[.H.k y i.].(.].).).[.i.u G H.[._.p.V A A N } !.].].Y.Y C F G.[.[.P.I Z Z D 8   ",
"  e s s s n !.'.'.a.d s %.^.)._.v.j f i f k H._.[.s.f g Z.[.].!.!.).[.C.A g p.[.(.I.G A A A S z.].)./.1.B C r._._.~.o.Z Z Z M   ",
"& e s h s -.).'.^...s d j.[._.!.[ r d i i | ~.)./...i R R._._.N.N._._.R.R N X./._.^.@.V A N N } !.).].N.S B O./._._.0.Z Z Z Z . ",
"& s s s s f.'.'.R.b d l I._._.Z.j f f f y f.].].L.z f <.(.]._.3.3.).].(.1.u G L._._.x.N A S A S S.].).T.Y B Y T._.].c.Z Z Z Z # ",
"& s s s h V.'.'.H.h r ` !.).).u.i d f i T U.].].i.f f n.].].!.( ( R.]._.N.g N t._._.E.) N A S N 9.).]./.O.C D D.].].G.D Z Z D % ",
"- s s s h K.'.}.M.d d *.).).^...d f f i q.).).!.' y R R.].].Z.g p M._.].R.) u ) E._._.d.A A N N } !.).).8.M S b.].].Y.I Z Z Z 7 ",
": s s s v U.}.}.f.s d u.)._.E./ f f i T U._._.M.g y 7.).(.(.5.u p :.^.(.(.e.N V x._._.E._ N C N U T.).].k.B Z k.].].T.! Z Z Z 8 ",
": s s s v U.}.}.u.s d s.[._.U.x f d f f._.].^...i z H.].].R.T u p J I.].].I.K u } !._._.b.H N N U I.].].c.B M r.].].R.! Z Z Z 8 ",
"9 s s s v E.).].u.s d f._._.I.l d i %.!.].].n.f y *.^.).[.f.g g g p u./.)./.9.V A g._._./.9.N N H G.[.[.b.Z B r.)._.W.! D D D 8 ",
": s s s v U.[.[.s.d d s._._.I.x r / U.].].E.' i z H.[.).W.{ g g g p P Y.[.[.I.P N R Y._._.W.@.N H I.[.[.z.C B p._._.W.o.Z Z D % ",
"- s s s x U.[.[.j.s d u.[._.R.c T F.].)./.q.f i 5.(.).].x.g y $.:.u u i.)._.(.p.N N 1.~._._.T.X.U Y.[._.k.B B l._._.R.Y D D D % ",
"- s s s h H.[.[.Z.d d -.)._.Q.-.H.].(.].M.k i W U.].].R.) f G S.S.G u ( I._._.E.X.u A d._._._.T.r.W.).).8.B D B._.[.Y.F D D D % ",
"& s s s s M.[._.I.x d ` ^.).(.~.(.(._.H.T y k M.].(.(.i.g y :./.~.$.u u 3./.)._.H.P N H n._._._./.)._./.+.B U I.[.[.B.Z D D Z # ",
"X e s s s u._._.~.` d x I._.).).].].H./ d f q.(.].].F.L f z H.[._.C.A V G N._.)._.x.A A H m._._.).).[.Y.U B _ !._.[.l.Z D D Z . ",
"  9 s s s =.(._.).6.d d h.[.).(.).Z./ y f 2.^._._.Q.| f g t.(.].).^.<.p p ) U._._.(.p.A A H z./._._._.b.C B 8._._.(.8.Z Z Z M   ",
"  9 s s s n E._._.V.d i [ ^._.~.g.x y d *.Q.).).^.5.g y { Q.].(.]._.I.P p p :.!._._./.p.A N S 3.T._./.,.B C b._._.!.o.Z Z Z 8   ",
"  - s s s h Z.'._.Q./ d h C.I.#.f d i -.W.].).(.f.g i L H.[.(.]._.)._.x.A g A 7./._._./.d.H N B ^ b.m.H B ! W.[.].G.F Z Z D %   ",
"    s s s s q.).)._.u.d d v x i f j u.~.].).).j.k f z n.[.(.].T.I._._.^.5.V p A i.~._.).(.m.Q N V S I B B r.(.(._.r.B Z D B     ",
"    9 s s s v U.].).U.v d d d d / M./.).].(.h.z i g d.(.(.[.!.$.X.~._._.!.$.p V A u.~._._._.I.,.S N B N U Y.[.].W.o.Z Z D 8     ",
"    - h s s h j.].).).u.f i f -.I.(.].].^.d.k f g q.^.[.].(.p.g g i.(._._.R.} p N A 8.W._.)._.!.l.Q B N r._.(.[.b.D Z Z Z 4     ",
"      e s h s ` Q.).[.E.` ` M.^.].).].E.6.f f f q.^.].(.].N.G i g k N._.)._.R. .N N u X.I.)._._.[.Y.0.O.T.[.].!.O.C S D B       ",
"      : s s d d j.[.).).U.Q.}.).].).H.] i y k s./.].(.[.H.T g p g p P I._._._.R.;.A A N U x.~.).(.[./.W._.(.].b.F C Z D 5       ",
"        e s s d n U.].).].).).].Q.i.z f r c v.(._.(.].I.) f g g g g p ) I._._._.Q.9.G A N S >.I.).]._.]._.].R.o.C Z Z M         ",
"        : d s d d -.^.).).].^.V.] f f y ' H.).)._.[.U.{ i g g g g p g p  .I.[.)._./.v.U N A N P r.T.).]._.(.0.C C C Z 4         ",
"          e h d d h j.|./.Z.=.j d i j 4.R.[.(.).].L.' p g g g g p g g g N ) I._.).].].I.>.A N A N Q k.T.].N.F C C Z m           ",
"          & e d d d n s.%.j y d f ` M./.].).].].Z.W i f i g f p g g A g p u ( B.).).)._.^.b._ A N B N ! 8.U C Z Z C #           ",
"            : d d d d d d d d c u.R.].).).]./.h.L i g f g g f g g g p A A p V J p.^._.].(._.R.p.Q N B B N Z S Z C 5             ",
"              q d d d d d l 6.I.).].).).].E.6.g i p f g f g p g p g g g A p g V A <.I.).).).].).T.p.U C C C C S t               ",
"                e d d f d b H.[.).).).].T.| y f f g i g g g p g g p g A A g A p V N ) S.].).).). XT._ C S C S m                 ",
"                o e d d f d T M.(.).).).!.h.' j i i i p i f g p g g g g g A g V A ) d.R.).).).).D._ B N N C M @                 ",
"                  o e d f d d k u.Q.].(.].].!.V.2.W k i p p i p u p p p p A ( 1.N.W._._.).}.^.d.Y N C C Z m @                   ",
"                    & e d d f d f [ C./.].).'.[.(.E.F.g.7.$.{ { { { $.8.d.S.R./._._._._.(.G.@.S N C C C m +                     ",
"                        0 d f d f r k *.F.^.}.'.(.].].].]././.!.!.~.^.)._.[._._.].]./.L.3.H N S V B B t                         ",
"                          > d f d i f r k $.M.U.(.}.].].).).).)._._.).)._._._.).W.C.1.H N A N A S V 6                           ",
"                            * e r j f f f i f R <.h.H.R.~./.).).).(./.^.R.I.v.3.Q A N A A A A S t $                             ",
"                                > r f f f f f i f f z R { $.2.5.7.3.:. .R J A p p A A A A S N 1                                 ",
"                                    2 w f i f f g f g f y y g y p p p p V A g A p V A V N 1                                     ",
"                                        ; 0 i f f g f g g f g g p g p A p p A A V V a <                                         ",
"                                              ; 3 w i p g g g g g g p p p p y a <                                               ",
"                                                    O = ; < 2 3 3 2 < < + O                                                     "
};
