/* XPM */
static char *c956e386c92d465ec8a50b1dd4b3997aZOaaQQoZqyYIpuaH[] = {
/* columns rows colors chars-per-pixel */
"32 32 171 2 ",
"   c None",
".  c #572578",
"X  c #59267A",
"o  c #64257C",
"O  c #6E247C",
"+  c #732277",
"@  c #71237B",
"#  c #7C237D",
"$  c #5F2781",
"%  c #5E2A85",
"&  c #622781",
"*  c #6C2782",
"=  c #622986",
"-  c #6C2886",
";  c #6E278E",
":  c #652B8C",
">  c #6B2A8C",
",  c #722785",
"<  c #7D2685",
"1  c #71278E",
"2  c #7E278C",
"3  c #74298E",
"4  c #7B288F",
"5  c #662A90",
"6  c #6C2C91",
"7  c #722B91",
"8  c #7C2B90",
"9  c #6F3495",
"0  c #733495",
"q  c #7B3595",
"w  c #753897",
"e  c #7C3997",
"r  c #7D3C99",
"t  c #7A439C",
"y  c #852484",
"u  c #882486",
"i  c #84268E",
"p  c #8C268E",
"a  c #83288E",
"s  c #90248E",
"d  c #852B91",
"f  c #8C2C91",
"g  c #912A91",
"h  c #833394",
"j  c #8B3596",
"k  c #833D99",
"l  c #8C3C99",
"z  c #913294",
"x  c #923E9B",
"c  c #993F9A",
"v  c #83449D",
"b  c #8D439C",
"n  c #86499F",
"m  c #91479E",
"M  c #9B429C",
"N  c #90499F",
"B  c #844EA2",
"V  c #8D4CA1",
"C  c #944CA1",
"Z  c #9D4EA2",
"A  c #8653A4",
"S  c #8D54A5",
"D  c #8F58A7",
"F  c #8C5AA8",
"G  c #9554A5",
"H  c #9D54A5",
"J  c #9558A7",
"K  c #9959A7",
"L  c #925CA8",
"P  c #9A5EAA",
"I  c #A24DA2",
"U  c #A155A5",
"Y  c #A158A7",
"T  c #A35CA9",
"R  c #A85EAA",
"E  c #8E62AB",
"W  c #9263AC",
"Q  c #9963AC",
"!  c #9B69AF",
"~  c #956DB1",
"^  c #9F6FB2",
"/  c #9D73B4",
"(  c #A162AC",
")  c #AB64AD",
"_  c #A46DB1",
"`  c #AA6CB1",
"'  c #B16EB2",
"]  c #A471B3",
"[  c #AB74B5",
"{  c #A279B7",
"}  c #A57FBA",
"|  c #AB7EB9",
" . c #B276B5",
".. c #B379B7",
"X. c #B47EBA",
"o. c #BA7DB9",
"O. c #A584BC",
"+. c #AB83BC",
"@. c #AE8ABF",
"#. c #B484BC",
"$. c #BB83BC",
"%. c #B489BF",
"&. c #BA89BF",
"*. c #AC8DC1",
"=. c #B28EC1",
"-. c #BB8DC1",
";. c #B492C3",
":. c #BC96C6",
">. c #B699C7",
",. c #BC9AC7",
"<. c #BC9DC9",
"1. c #BEA2CB",
"2. c #C38EC2",
"3. c #C196C6",
"4. c #C49DC9",
"5. c #C4A3CC",
"6. c #C9A6CE",
"7. c #C4A9CF",
"8. c #CCA8CE",
"9. c #C5ADD1",
"0. c #CCADD1",
"q. c #D0ACD0",
"w. c #C6B1D3",
"e. c #CCB3D4",
"r. c #CFBFDA",
"t. c #D1B4D5",
"y. c #D6BAD7",
"u. c #D3BDD9",
"i. c #D6C3DC",
"p. c #DAC5DD",
"a. c #D6C8DE",
"s. c #DBCADF",
"d. c #DCCDE1",
"f. c #DED1E3",
"g. c #E2D5E4",
"h. c #E2D9E7",
"j. c #E6DDE9",
"k. c #E6DBE8",
"l. c #E8DDE9",
"z. c #E9DFEA",
"x. c #E8DDE9",
"c. c #E6E0EA",
"v. c #EAE1EB",
"b. c #E9E3EB",
"n. c #E8E0EA",
"m. c #EBE6ED",
"M. c #ECE7EE",
"N. c #EBE4EC",
"B. c #EEE9EE",
"V. c #EEEAEF",
"C. c #ECE8EE",
"Z. c #EDE9EE",
"A. c #EEEBF0",
"S. c #EFECF0",
"D. c #EFECF0",
"F. c #F0EBF0",
"G. c #F0EDF1",
"H. c #F0EEF1",
"J. c #F2EFF2",
"K. c #F1EEF1",
"L. c #F1F0F2",
"P. c #F2F0F2",
"I. c #F2F1F3",
"U. c #F4F3F4",
"Y. c #F4F4F4",
"T. c gray96",
"R. c #F5F5F4",
"E. c #F5F6F5",
"W. c #F6F7F6",
"Q. c #F4F3F4",
"!. c #F7F8F6",
/* pixels */
"                        o * - , , , , @                         ",
"                  o - 3 3 3 4 4 8 8 4 a 4 < @                   ",
"              X - ; 1 7 k v q G G 8 b j d a d < +               ",
"            & ; 7 7 D :.s.t.k p.e.l i.d.,.H f i a #             ",
"          = 3 6 B 5.V.R.T.i.k d.u.l f.R.R.V.8.Z i p <           ",
"        = 6 7 / h.Q.i.} g.u.k f.a.l s.s. .u.U.k.[ f p y         ",
"      $ 6 6 } V.b.+.q q f.e.k g.s.l i.p.d j X.v.F.o.f p #       ",
"    . 5 6 / V.h.W q v k h.9.b j.g.b t.f.j C j P g.H. .f p +     ",
"    : > A j.c.L r 9.+.B j.<.C N.b.V 6.k.l &.q.x Y l.z.U s u     ",
"  X 5 9 w.I./ w 9.T.^ V A.%.Q H.A.K -.A.C [ T.0.j  .J.t.z s #   ",
"  % 5 W H.e.9 *.T.a.r ] I.^ [ U.U.[ _ I.` l p.T.&.f q.H.) s y   ",
"  : 9 1.H.E B c.j.S ; ,.N.V <.T.T.:.C C.3.i Z k.v.Z R H.q.g p   ",
"X 5 t f.d.w ;.W.*.1 q d.i.k i.I.I.u.l s.s.j a #.R.3.g p.x.M s # ",
"% 5 E L.>.w d.h.v 1 L A.;.V b.a.i.N.C -.A.T i x h.g.z 3.U.) s y ",
"% 5 O.T./ A A.9.7 7 1.A.S | T.#.| T.#.G M.6.d d 8.F.I ' P.o.s y ",
"% 5 *.I.W E L.*.; S C.e.k u.N.V b j.a.j 0.V.T u &.P.) R P.2.s u ",
"% 5 *.I.W ~ I.+.q u.V.L ! H.6.q d 5.I.] G M.p.x ..U.) R J.3.s u ",
"% 5 O.R.~ F S.5.7.T.;.k a.V.J P Q C N.s.l &.U.t.6.H.T ' U.$.s u ",
"% 5 / R.;.t j.H.R.7.e ;.U.,.h u.t.h -.T.4.j 4.R.U.k.M &.P.' s y ",
"X 5 t N.u.w w.H.<.q | H.p.k | I.H.] h u.I.-.j &.M.t.z y.B.I s # ",
"  : 9 i.m.F F ~ w @.V.f.G D l.A.V.g.N N s.I.3.j Y I I B.y.z s   ",
"  : : O.E.1.> t 7.I.f.D B d.U.#.#.U.u.j m p.Q.y.H p 4.R.o.s u   ",
"  X 5 t f.m.1.f.Q.e.n S d.R.5.d 8 5.T.u.b x 5.H.b.8.N.g.c g #   ",
"    % 5 / L.W.g.O.q Q f.T.e.k 3 4 l e.W.p.H f ` s.R.U...s u     ",
"    . 5 0 ;.;.t r ;.N.R.9.k 4 8 8 2 j 6.U.b.-.z z ..&.z p +     ",
"      $ 5 7 0 / d.R.N.=.q 3 3 8 8 8 8 h #.b.T.s. .j p p #       ",
"        = 6 w 1.I.W.e.v 3 3 4 4 2 2 4 a l 6.T.T.8.j p y         ",
"          = 6 0 | h.I.g.5.] G V V J ] 4.g.U.k.#.z p <           ",
"            & ; 6 B ;.d.J.J.D.C.N.G.T.J.g.3.C f a #             ",
"              X - 1 7 k P =.5.0.0.5.-.( l d i < @               ",
"                  o - 1 7 3 4 8 8 2 4 4 4 < @                   ",
"                        o - , , , , , O                         "
};
