/* XPM */
static char *c728b3159d134b34900308bba25fb45auX17c5PLxiSPEZUF[] = {
/* columns rows colors chars-per-pixel */
"16 16 194 2 ",
"   c None",
".  c #5C2484",
"X  c #5D2584",
"o  c #602684",
"O  c #622486",
"+  c #642584",
"@  c #652684",
"#  c #642687",
"$  c #692383",
"%  c #62298A",
"&  c #622A8A",
"*  c #762183",
"=  c #7C2283",
"-  c #7C2383",
";  c #702688",
":  c #782588",
">  c #78268E",
",  c #7B268E",
"<  c #76298B",
"1  c #732C8B",
"2  c #79288B",
"3  c #7C2B8B",
"4  c #67308F",
"5  c #6C3392",
"6  c #733090",
"7  c #7D3491",
"8  c #713A95",
"9  c #7A3B96",
"0  c #7F499F",
"q  c #831F82",
"w  c #841F82",
"e  c #812182",
"r  c #822383",
"t  c #802184",
"y  c #812285",
"u  c #8A2488",
"i  c #8B2589",
"p  c #8F2B8D",
"a  c #862E90",
"s  c #8F2F90",
"d  c #803491",
"f  c #8D3B96",
"g  c #933693",
"h  c #80489E",
"j  c #97459D",
"k  c #9B479D",
"l  c #9B479E",
"z  c #814CA0",
"x  c #864CA1",
"c  c #844EA1",
"v  c #8E4CA1",
"b  c #914CA1",
"n  c #984BA1",
"m  c #9C4EA1",
"M  c #8D55A5",
"N  c #8F55A5",
"B  c #9951A4",
"V  c #9B52A4",
"C  c #9459A7",
"Z  c #9659A7",
"A  c #9859A7",
"S  c #9A58A7",
"D  c #935DA8",
"F  c #9F5CA9",
"G  c #A65FAB",
"H  c #8F64AC",
"J  c #9261AB",
"K  c #9B64AD",
"L  c #9F64AD",
"P  c #9E66AE",
"I  c #9770B2",
"U  c #9C71B3",
"Y  c #A062AC",
"T  c #AC62AC",
"R  c #AB69AF",
"E  c #A36CB0",
"W  c #A96DB2",
"Q  c #B26EB1",
"!  c #A070B2",
"~  c #A570B3",
"^  c #A575B5",
"/  c #A476B5",
"(  c #AD75B6",
")  c #AD77B6",
"_  c #AE77B6",
"`  c #AD78B7",
"'  c #B07AB8",
"]  c #B87EBA",
"[  c #A580BB",
"{  c #A782BC",
"}  c #AA86BD",
"|  c #AA87BE",
" . c #AF86BD",
".. c #AB88BE",
"X. c #AD89BF",
"o. c #AF88BE",
"O. c #AF8ABF",
"+. c #B980BB",
"@. c #BA84BC",
"#. c #BA85BD",
"$. c #BB85BD",
"%. c #BA86BE",
"&. c #B988BF",
"*. c #B08BC0",
"=. c #B38BC0",
"-. c #B48CC0",
";. c #B48EC1",
":. c #B98AC0",
">. c #B88BC0",
",. c #B98BC0",
"<. c #BB8BC0",
"1. c #B88CC0",
"2. c #B593C4",
"3. c #B295C5",
"4. c #B695C5",
"5. c #B990C3",
"6. c #B993C4",
"7. c #B997C6",
"8. c #BD95C5",
"9. c #BE97C6",
"0. c #BD9AC7",
"q. c #B69CC8",
"w. c #BA9BC8",
"e. c #BB9CC8",
"r. c #BE9CC8",
"t. c #BE9DC9",
"y. c #BFA7CE",
"u. c #BFA8CE",
"i. c #C094C5",
"p. c #C096C6",
"a. c #C594C5",
"s. c #C29AC8",
"d. c #C29EC9",
"f. c #C19ECA",
"g. c #C69FCA",
"h. c #C89BC8",
"j. c #C2A1CB",
"k. c #C6A0CA",
"l. c #C6A2CC",
"z. c #C0A4CC",
"x. c #C3A5CC",
"c. c #C3A4CD",
"v. c #C6A5CD",
"b. c #C7A5CD",
"n. c #C4A7CE",
"m. c #C5A7CE",
"M. c #C7A6CE",
"N. c #C8A3CC",
"B. c #CAA6CE",
"V. c #CDA6CE",
"C. c #CEA6CE",
"Z. c #C0A9CF",
"A. c #C4A8CE",
"S. c #CFA8CF",
"D. c #C4ACD0",
"F. c #C4ADD1",
"G. c #C6ADD0",
"H. c #CDAAD0",
"J. c #CCABD0",
"K. c #CEAAD0",
"L. c #C8AED1",
"P. c #C9AFD2",
"I. c #CDAED1",
"U. c #CDAFD2",
"Y. c #CBB1D3",
"T. c #CDB0D2",
"R. c #CDB1D3",
"E. c #C9B3D4",
"W. c #CBB3D4",
"Q. c #C9B5D5",
"!. c #CBB6D6",
"~. c #D2B3D4",
"^. c #D3B6D5",
"/. c #D4B5D5",
"(. c #D2BAD7",
"). c #D4BAD7",
"_. c #D4BBD8",
"`. c #D1BCD8",
"'. c #D1BDD9",
"]. c #D1BFDA",
"[. c #D7BDD9",
"{. c #D4BED9",
"}. c #D5BFDA",
"|. c #D8BFDA",
" X c #D1C0DA",
".X c #D4C0DA",
"XX c #D4C1DB",
"oX c #D7C2DB",
"OX c #D6C3DC",
"+X c #D4C4DC",
"@X c #D7C5DD",
"#X c #DBC5DD",
"$X c #D9C6DD",
"%X c #D8C7DE",
/* pixels */
"          $ ; < 2 : *           ",
"      + 6 D ^ P P ` F a =       ",
"    + z x.`..X6.1.oX_.l.j y     ",
"  X 0 !.O.M m.0.0.B.B %.^.l e   ",
"  5 y.*.2./ x.m.N.m.( i.%.V.s   ",
"X J F.} A.U f.`.(.f.W I.%.S.T e ",
"& 3...E.M *.-.%X%X&.:.B ~.$.a.u ",
"4 u.[ F.x P.*.j.j.&.I.n S.] V.p ",
"4 u.[ E.x.-.Y.~ E T.&.S.~.+.S.p ",
"& q... Xe.7.r.r.8.0.s.p.{.$.h.i ",
"X I F.J e.A. ..X{.( j.N.T S.Q e ",
"  8 !.`.4.X.%XC A {.' &.{./.g   ",
"  o z U y.{.C > , S ).N.R l e   ",
"    # c +X!.K v b Y I.#Xm y     ",
"      + 9 ^ x.T.T.B.` f -       ",
"          $ 1 7 d 2 *           "
};
